<svg width="32" height="32" viewBox="0 0 32 32" fill="none" xmlns="http://www.w3.org/2000/svg">
<rect width="32" height="32" rx="4" fill="#B41B3A"/>
<path d="M3.32471 8.87796C3.32471 9.04243 4.11969 10.4678 8.84848 18.6635L11.206 22.775L11.8639 22.8161C12.2203 22.8435 12.5082 22.8161 12.5082 22.775C12.5082 22.6928 10.6989 19.5406 6.13457 11.6738L4.47606 8.79573L3.90039 8.75462C3.5166 8.72721 3.32471 8.76832 3.32471 8.87796Z" fill="white"/>
<path d="M11.9594 8.8368C11.9594 8.90533 12.3569 9.67282 12.8503 10.5225C13.3437 11.386 13.7412 12.1397 13.7412 12.222C13.7412 12.2905 13.097 13.5377 12.302 15.0041L10.8491 17.6355L11.9045 19.4857C12.4802 20.5136 13.0011 21.3633 13.0559 21.4044C13.1107 21.4318 13.7823 20.3217 14.5636 18.9375C15.3312 17.5396 16.0028 16.3746 16.0576 16.3472C16.1125 16.3061 16.9897 17.7452 18.0177 19.5268L19.8818 22.7749L20.5808 22.8161L21.2799 22.8572L20.1011 20.8288C19.4432 19.7187 18.4289 17.9507 17.8395 16.9091L16.7567 15.0178L17.1542 14.2366C17.3735 13.8118 18.1136 12.4413 18.799 11.1941C19.4843 9.94692 20.0463 8.89162 20.0463 8.8231C20.0463 8.76827 19.0731 8.74086 17.8943 8.75457L15.7287 8.79568L15.1393 9.82357C14.824 10.3855 14.5225 10.8652 14.454 10.8789C14.3991 10.8926 14.0839 10.4403 13.7412 9.85098C13.1381 8.8231 13.1107 8.79568 12.5487 8.75457C12.2198 8.72716 11.9594 8.76827 11.9594 8.8368Z" fill="white"/>
<path d="M24.2691 9.0288C23.7756 9.79628 19.6362 17.4712 19.6362 17.6219C19.6362 17.9372 21.7333 21.4868 21.843 21.3772C22.0623 21.1442 28.6826 9.0425 28.6826 8.86433C28.6826 8.7821 27.8602 8.72728 26.5718 8.72728C24.5432 8.72728 24.461 8.74099 24.2691 9.0288Z" fill="white"/>
</svg>
