<svg width="155" height="42" viewBox="0 0 553 150" fill="none" xmlns="http://www.w3.org/2000/svg">
<path d="M286.7 147.5C265 147.5 250.2 131.3 250.2 111.5C250.2 91.7 266.4 75.6 286.1 75.6C296.3 75.6 305.5 78.6 312.1 84.9L306.1 90.8C301.2 86 294.7 83.6 286.1 83.6C271.2 83.6 259 96.2 259 111.5C259 127.7 270.8 139.7 286.7 139.7C300.2 139.7 309.6 132.7 312.3 120.3H310.2C307.4 131.5 299 137.7 286.7 137.7C272 137.7 261.2 126.6 261.2 111.5C261.2 97.2 272.4 85.6 286.1 85.6C294.2 85.6 300 87.7 304.6 92.3L298.7 98.2C295.7 95 291.2 93.6 286.1 93.6C276.4 93.6 270 101.3 270 111.5C270 123.8 277.4 129.9 288.7 129.9C294.8 129.9 301.9 126.4 302.9 120.3H288.2L286.7 114H321.9C320.9 133.4 308.2 147.5 286.7 147.5ZM322 112H286.2L284.6 105.7H321.5C321.8 107.7 321.9 110.1 322 112ZM376.632 146V95.2L384.232 92.3V146H376.632ZM353.332 93.3C357.432 93.3 362.932 94.7 366.932 98.8L374.432 96V146H366.732V142.2C362.732 146 357.232 147.5 352.832 147.5C337.632 147.5 327.532 134.9 327.532 120.8C327.532 105.9 338.032 93.3 353.332 93.3ZM366.332 136L366.732 135.7V133.4C363.432 136.2 359.932 138.2 354.332 138.2C344.532 138.2 337.632 130.7 337.632 120C337.632 109.9 344.432 102.5 353.832 102.5C359.132 102.5 363.332 104.1 366.732 107.4V105C363.232 102 359.032 100.5 353.832 100.5C343.132 100.5 335.432 108.7 335.432 120C335.432 131.9 343.232 140.2 354.332 140.2C359.032 140.2 362.532 138.9 366.332 136ZM356.432 131C362.532 131 367.232 126.4 367.232 120.4C367.232 114.4 362.532 109.8 356.432 109.8C350.232 109.8 345.532 114.4 345.532 120.4C345.532 126.4 350.232 131 356.432 131ZM460.38 93.3C474.58 93.3 483.28 101.8 483.28 114.2V146H475.18V117.4C475.18 106 470.48 100.5 460.68 100.5C456.18 100.5 451.28 102 447.08 106.4L447.68 108.5C450.98 104.1 455.88 102.5 460.68 102.5C469.18 102.5 472.98 107.1 472.98 117.4V146H464.78V118.5C464.78 112.7 461.88 109.8 456.78 109.8C450.78 109.8 448.18 114.3 448.18 119.5V146H440.08V117.4C440.08 106 435.38 100.5 425.58 100.5C420.58 100.5 416.28 102.3 413.08 105.6V107.8C415.98 104.4 420.48 102.5 425.58 102.5C434.08 102.5 437.88 107.1 437.88 117.4V146H429.78V118.3C429.78 112.5 426.78 109.7 421.78 109.7C415.68 109.7 413.08 114.2 413.08 119.8V146H404.98V94.8H413.08V99.1C416.18 95.6 421.18 93.3 428.08 93.3C434.98 93.3 440.18 95.6 443.58 99.7C446.88 96.3 452.68 93.3 460.38 93.3ZM402.78 146H394.68V94.8H402.78V146ZM500.816 146H493.216V75.6H500.816V146ZM524.616 93.3C539.816 93.3 549.916 105.9 549.916 120C549.916 134.9 539.416 147.5 524.116 147.5C520.116 147.5 514.716 146.1 510.716 142.1V146H503.016V75.6H510.716V98.6C514.716 94.8 520.216 93.3 524.616 93.3ZM523.616 140.3C534.316 140.3 542.016 132.1 542.016 120.8C542.016 108.9 534.216 100.6 523.116 100.6C518.416 100.6 514.916 101.9 511.116 104.8L510.716 105.1V107.4C514.016 104.6 517.516 102.6 523.116 102.6C532.916 102.6 539.816 110.1 539.816 120.8C539.816 130.9 533.016 138.3 523.616 138.3C518.316 138.3 514.116 136.7 510.716 133.4V135.8C514.216 138.8 518.416 140.3 523.616 140.3ZM510.216 120.4C510.216 126.4 514.916 131 521.016 131C527.216 131 531.916 126.4 531.916 120.4C531.916 114.4 527.216 109.8 521.016 109.8C514.916 109.8 510.216 114.4 510.216 120.4Z" fill="#EC1515"/>
<path d="M206.008 92.1133C220.808 92.1133 231.308 103.913 231.308 118.513C231.308 133.613 220.508 145.513 205.608 145.513C203.208 145.513 200.808 145.013 198.708 144.013L195.008 131.113C197.308 132.813 200.208 133.813 203.608 133.813C212.008 133.813 218.508 127.513 218.508 118.813C218.508 110.013 212.108 103.813 203.608 103.813C194.808 103.813 189.008 110.813 189.008 118.713V144.013H176.608V73.6133H189.008V100.613C193.208 94.7133 199.908 92.1133 206.008 92.1133Z" fill="black"/>
<path d="M57.5825 79.9103L46.5 129.513L36.3 74.0132H18L35.8 144.213H56.5L64.5 102.013L79.3 144.213H100L118.3 74.0132H99.9L91.9823 120.761L92 120.787L91.4536 123.883L90.5 129.513L90.4201 129.167L57.5825 79.9103Z" fill="black"/>
<path d="M86.7652 113.319L77.7 74.0132H59.2104L86.7652 113.319Z" fill="black"/>
<path d="M165 117.185C165 118.634 164.909 120.144 164.727 121.714H129.482C129.725 124.855 130.727 127.271 132.488 128.962C134.309 130.592 136.525 131.408 139.136 131.408C143.021 131.408 145.723 129.777 147.241 126.516H163.816C162.966 129.837 161.418 132.827 159.171 135.484C156.986 138.142 154.223 140.225 150.884 141.735C147.545 143.245 143.811 144 139.682 144C134.704 144 130.271 142.943 126.386 140.829C122.5 138.715 119.464 135.696 117.279 131.77C115.093 127.844 114 123.254 114 118C114 112.746 115.062 108.156 117.188 104.23C119.373 100.304 122.409 97.2846 126.295 95.1707C130.18 93.0569 134.643 92 139.682 92C144.6 92 148.971 93.0267 152.796 95.0801C156.621 97.1336 159.596 100.063 161.721 103.868C163.907 107.672 165 112.111 165 117.185ZM149.062 113.108C149.062 110.451 148.152 108.337 146.33 106.767C144.509 105.196 142.232 104.411 139.5 104.411C136.889 104.411 134.673 105.166 132.852 106.676C131.091 108.186 129.998 110.33 129.573 113.108H149.062Z" fill="black"/>
<path fill-rule="evenodd" clip-rule="evenodd" d="M136.87 6.08718C133.462 4.69643 129.582 4.64377 127.088 5.04401C109.402 7.98759 71.5587 14.3564 61.3384 16.3364C56.9746 17.1818 54.0143 19.7547 52.5551 23.1061C51.3547 25.8631 51.1203 29.2763 52.1479 32.8602C57.3064 30.254 62.1377 27.8926 66.1237 26.065L66.1354 26.0596C69.0855 24.726 73.903 23.6268 78.7667 24.3196C83.7463 25.029 88.8676 27.6521 91.8424 33.8001C94.5074 39.3077 101.522 54.1704 108.893 70.0133H103.568C96.5623 54.9741 90.0393 41.1578 87.4966 35.9029C85.3536 31.4741 81.7995 29.6282 78.0859 29.0992C74.2596 28.5542 70.3695 29.4453 68.1297 30.4563C51.9349 37.8825 21.5031 54.2864 12.6676 59.6828C8.26126 62.374 6.11758 65.2828 5.28098 67.8134C4.44864 70.3311 4.82918 72.7006 5.88915 74.563L5.89338 74.5704L20.3109 99.4005L24.6387 116.468L1.70455 76.9708L1.70001 76.9629C-0.0089137 73.9676 -0.585842 70.1788 0.697119 66.298C1.97693 62.4268 5.02564 58.6931 10.1512 55.5626C16.3519 51.7754 32.7992 42.7722 47.7831 35.0831C46.1803 30.2397 46.3217 25.3289 48.1286 21.1788C50.2337 16.344 54.5225 12.7393 60.4202 11.5967C70.7216 9.601 108.657 3.21738 126.302 0.28055L126.315 0.278428L126.315 0.278462C129.443 -0.225075 134.264 -0.19045 138.694 1.61713C142.665 3.23736 146.316 6.29843 148.023 11.4894C158.195 11.2575 171.386 11.1836 187.879 11.1761L187.892 11.1761C191.061 11.1916 195.811 12.0151 199.885 14.5236C204.077 17.1049 207.543 21.4906 207.688 28.3067C207.737 30.6241 207.776 34.0402 207.808 38.2027L209.231 38.7667L209.235 38.7683L209.235 38.7684L209.237 38.7688C217.419 42.0117 225.079 45.047 239.492 51.2215L239.504 51.2265C242.503 52.5303 246.564 55.47 249.321 59.6213C252.137 63.8621 253.659 69.5053 251.098 75.8454C247.952 83.6317 246.175 87.8211 243.019 95.2612C241.085 99.8218 238.632 105.604 235.029 114.184C234.678 111.49 234.003 108.902 233.036 106.471C235.373 100.924 237.133 96.7742 238.594 93.3305L238.595 93.3283C241.733 85.9287 243.49 81.7879 246.621 74.0368C248.461 69.4826 247.436 65.5105 245.299 62.2921C243.104 58.9869 239.808 56.6246 237.585 55.6566C223.462 49.6067 215.87 46.5909 207.842 43.4093C207.913 56.1863 207.931 73.4762 207.936 88.1719C207.301 88.1331 206.658 88.1134 206.008 88.1134C205.054 88.1134 204.084 88.1676 203.109 88.2783C203.101 66.0541 203.062 37.9055 202.861 28.409C202.756 23.4778 200.372 20.4935 197.354 18.6347C194.219 16.7047 190.4 16.0174 187.874 16.004C171.89 16.0112 159.054 16.081 149.076 16.2952C150.226 22.7935 152.407 36.0227 154.843 50.7952L154.844 50.8004L154.866 50.9347L154.9 51.143L154.92 51.2636L155.026 51.9052C155.349 53.8656 155.677 55.8507 156.006 57.8486C158.236 71.3578 160.572 85.4615 162.473 96.5246C160.806 94.8292 158.915 93.3397 156.821 92.1039C155.103 81.9833 153.132 70.0824 151.243 58.6346C150.924 56.7049 150.608 54.7883 150.296 52.8954L150.16 52.0692L150.084 51.6078L150.083 51.6025L150.081 51.5897C147.293 34.6784 144.852 19.876 143.904 14.8279C142.993 9.9803 140.153 7.4266 136.87 6.08718ZM164.04 105.506C164.04 105.506 164.041 105.507 164.041 105.507C162.507 102.469 160.389 99.788 157.765 97.6379C157.765 97.6378 157.765 97.6377 157.765 97.6376C160.389 99.7875 162.507 102.469 164.04 105.506ZM120.909 96.075C120.042 94.1712 119.142 92.2018 118.218 90.1866L116.29 97.5811C116.662 98.3976 117.028 99.2023 117.388 99.9939C118.438 98.5833 119.614 97.2722 120.909 96.075ZM113.657 91.8238L115.58 84.4489C115.58 84.4488 115.58 84.4487 115.58 84.4486L113.657 91.8234C113.657 91.8236 113.657 91.8237 113.657 91.8238ZM110.752 74.0133H105.429C105.429 74.0134 105.429 74.0134 105.429 74.0134H110.752C110.752 74.0134 110.752 74.0134 110.752 74.0133ZM230.983 114.12C230.886 113.47 230.767 112.829 230.628 112.196C230.627 112.197 230.627 112.197 230.627 112.197C230.767 112.829 230.886 113.471 230.983 114.12L230.983 114.12ZM206.008 92.1135L206.13 92.1138C206.089 92.1136 206.049 92.1134 206.008 92.1134C206.008 92.1134 206.008 92.1135 206.008 92.1135Z" fill="black"/>
<path d="M186.455 25.9057C184.539 28.6052 182.971 30.9855 183 31.1887C183.029 31.6531 189.764 41 190.054 41C190.17 41 191.854 38.7649 193.828 36.0653L197.398 31.1306L193.799 26.0508C191.825 23.2642 190.17 21 190.083 21C189.996 21 188.37 23.2061 186.455 25.9057Z" fill="#EC1515"/>
<path d="M72.3187 36.7667C70.7459 37.4548 69.894 38.3067 69.1732 39.9449C68.8455 40.6985 68.5506 41.3538 68.5179 41.4194C68.4851 41.4849 67.6332 41.2883 66.6503 40.9607C64.6516 40.3381 63.2427 40.4692 61.5716 41.4849C59.4091 42.8283 58.3934 45.8755 59.3763 48.2346C60.2282 50.266 61.3423 51.1507 64.7171 52.4941C66.4537 53.1494 69.4353 54.3289 71.3357 55.0825C73.2361 55.8361 74.8744 56.3931 75.0054 56.2621C75.3658 55.9344 79.5926 44.9908 79.953 43.4508C80.4117 41.3538 80.0185 39.7156 78.6424 38.2084C76.9713 36.308 74.5795 35.7837 72.3187 36.7667Z" fill="#EC1515"/>
<path d="M232.46 59.8519C230.938 60.3595 229.925 61.1052 229.293 62.1749C228.729 63.095 228.572 63.1791 226.89 63.2206C222.851 63.3324 220.436 67.1885 221.96 71.0809C222.943 73.5113 226.083 74.9453 228.687 74.1536L229.927 73.7853L230.477 75.0644C231.806 77.9392 234.739 79.2104 237.603 78.0951C241.121 76.7362 242.307 72.3933 239.948 69.3469C239.054 68.2347 238.976 67.9559 239.284 67.2679C241.071 63.1372 236.745 58.4077 232.46 59.8519Z" fill="black"/>
<path d="M227.396 76.2305C226.713 76.4422 225.854 76.5232 225.491 76.4447C224.072 76.1016 224.867 76.7203 227.405 77.942C231.439 79.8466 231.317 79.8407 230.281 78.5078C229.763 77.8413 229.255 76.9614 229.183 76.5607C229.01 75.6969 229.071 75.6999 227.396 76.2305Z" fill="black"/>
<path d="M122.412 15.0617C120.345 17.847 118.488 20.6923 118.249 21.3512C117.77 22.8487 117.979 24.2564 118.908 25.6041C119.986 27.2215 121.364 27.9702 123.221 27.9702C125.167 27.9702 126.216 27.4611 127.563 25.8737L128.612 24.6757L129.63 25.4244C131.696 26.9819 134.182 26.9819 136.309 25.4843C137.327 24.7655 138.285 22.8188 138.285 21.3812C138.285 19.045 137.507 18.1465 131.876 13.9535C128.971 11.7671 126.485 10.0001 126.365 10.0001C126.245 10.0001 124.478 12.2763 122.412 15.0617Z" fill="black"/>
<path d="M128.402 27.8204C128.162 28.2397 127.533 28.8686 126.994 29.1981C126.425 29.5575 126.036 29.8869 126.126 29.9768C126.186 30.0666 127.713 29.8869 129.48 29.5874L132.685 29.0783L131.187 28.3894C130.349 28.03 129.57 27.5808 129.48 27.4011C129.151 26.8919 128.851 27.0117 128.402 27.8204Z" fill="black"/>
</svg>
